<?xml version="1.0" encoding="UTF-8"?>
<svg version="1.1" xmlns="http://www.w3.org/2000/svg" width="512" height="512">
<path d="M0 0 C1.15794974 -0.00445784 2.31589948 -0.00891569 3.50893861 -0.01350862 C5.40302124 -0.01323207 5.40302124 -0.01323207 7.33536816 -0.01294994 C8.69786549 -0.01625194 10.06036186 -0.01997822 11.42285699 -0.02409142 C15.16180446 -0.0340817 18.90073588 -0.03782343 22.63969481 -0.04048073 C26.67472392 -0.04439274 30.70974043 -0.05397057 34.74476147 -0.0626936 C44.4880693 -0.08243472 54.23137813 -0.09252211 63.97470096 -0.10142139 C68.56845703 -0.10580892 73.16221197 -0.1111746 77.75596714 -0.11641026 C93.03680494 -0.13342165 108.31764204 -0.14791372 123.59848785 -0.155159 C127.56190333 -0.15706875 131.52531879 -0.1589891 135.48873425 -0.16094494 C136.47376606 -0.16142868 137.45879788 -0.16191242 138.47367915 -0.16241082 C154.41476987 -0.17070327 170.35578536 -0.19602731 186.29684327 -0.22852562 C202.6811666 -0.26165386 219.06545179 -0.27961304 235.44980878 -0.28280324 C244.64164215 -0.28496321 253.83336589 -0.29363629 263.02516651 -0.31926441 C270.85686706 -0.34105047 278.68843133 -0.34898325 286.52015875 -0.33929763 C290.51016309 -0.33477544 294.49988673 -0.33651641 298.48985195 -0.35605907 C329.19540601 -0.49810079 329.19540601 -0.49810079 343.12423229 4.13422108 C344.28455125 4.51203567 345.4448702 4.88985025 346.64035034 5.27911377 C372.78766999 14.22788873 392.85494709 33.28221036 405.84688854 57.32172108 C411.61162163 69.11657139 416.23474509 82.79373955 416.25845337 96.00998878 C416.26291121 97.16793853 416.26736906 98.32588827 416.27196199 99.5189274 C416.27168544 101.41301002 416.27168544 101.41301002 416.27140331 103.34535694 C416.27470531 104.70785428 416.27843159 106.07035064 416.28254479 107.43284577 C416.29253507 111.17179325 416.2962768 114.91072467 416.2989341 118.64968359 C416.30284611 122.68471271 416.31242394 126.71972921 416.32114697 130.75475025 C416.34088809 140.49805808 416.35097548 150.24136692 416.35987476 159.98468974 C416.36426229 164.57844582 416.36962797 169.17220075 416.37486362 173.76595592 C416.39187502 189.04679373 416.40636709 204.32763082 416.41361237 219.60847664 C416.41552212 223.57189211 416.41744247 227.53530758 416.41939831 231.49872303 C416.41988205 232.48375485 416.42036579 233.46878667 416.42086419 234.48366793 C416.42915664 250.42475865 416.45448068 266.36577415 416.48697899 282.30683205 C416.52010723 298.69115539 416.53806641 315.07544057 416.54125661 331.45979756 C416.54341658 340.65163094 416.55208966 349.84335467 416.57771778 359.0351553 C416.59950383 366.86685585 416.60743662 374.69842011 416.597751 382.53014753 C416.59322881 386.52015188 416.59496978 390.50987552 416.61451244 394.49984074 C416.75655416 425.2053948 416.75655416 425.2053948 412.12423229 439.13422108 C411.7464177 440.29454003 411.36860312 441.45485899 410.9793396 442.65033913 C402.03056463 468.79765877 382.97624301 488.86493587 358.93673229 501.85687733 C343.66647554 509.32021531 328.72627169 512.28632604 311.85531139 512.27466297 C310.49877542 512.27724937 309.14224021 512.2802633 307.78570604 512.28366637 C304.06795748 512.29170754 300.35022826 512.29352433 296.63247204 512.29426384 C292.61863218 512.29611947 288.60480223 512.30366942 284.59096813 512.31039906 C275.81792938 512.32396307 267.04489521 512.33000427 258.27184772 512.33440971 C252.78926656 512.33717578 247.30668715 512.34141383 241.82410717 512.34591389 C226.63158053 512.35810473 211.43905529 512.36840395 196.24652386 512.37178898 C194.7888352 512.37211833 194.7888352 512.37211833 193.3016983 512.37245433 C192.32763405 512.37267261 191.35356981 512.37289089 190.34998846 512.37311578 C188.3762989 512.37355924 186.40260935 512.3740058 184.42891979 512.37445545 C183.44991008 512.37467688 182.47090038 512.37489831 181.46222371 512.37512645 C165.61039154 512.37907171 149.75860542 512.39651825 133.90679103 512.41981497 C117.61510638 512.44356399 101.3234448 512.45599247 85.03174257 512.4571569 C75.89142981 512.45807174 66.75117703 512.46377568 57.61088085 512.48197651 C49.82527503 512.49742556 42.03974772 512.50246978 34.25412947 512.49423841 C30.28669131 512.49034866 26.31941104 512.49117881 22.35199261 512.50529575 C18.70976309 512.51813624 15.06780846 512.51674953 11.42557877 512.50470504 C9.50535639 512.50185665 7.5851288 512.5136065 5.66494513 512.5261271 C-23.3018389 512.36368002 -48.08531587 499.51663503 -68.43045521 479.63812733 C-83.96155112 463.27404876 -95.96901917 439.09708408 -96.00998878 416.25845337 C-96.01667555 414.52152876 -96.01667555 414.52152876 -96.0234974 412.74951476 C-96.02331304 411.48679301 -96.02312868 410.22407126 -96.02293873 408.92308521 C-96.02624073 407.56058788 -96.029967 406.19809151 -96.03408021 404.83559638 C-96.04407048 401.09664891 -96.04781221 397.35771748 -96.05046952 393.61875856 C-96.05438152 389.58372945 -96.06395935 385.54871294 -96.07268238 381.5136919 C-96.0924235 371.77038407 -96.1025109 362.02707524 -96.11141017 352.28375241 C-96.11579771 347.68999633 -96.12116338 343.0962414 -96.12639904 338.50248623 C-96.14341044 323.22164843 -96.15790251 307.94081133 -96.16514778 292.65996552 C-96.16705753 288.69655004 -96.16897788 284.73313457 -96.17093372 280.76971912 C-96.17141746 279.78468731 -96.1719012 278.79965549 -96.1723996 277.78477422 C-96.18069205 261.8436835 -96.20601609 245.90266801 -96.2385144 229.9616101 C-96.27164264 213.57728677 -96.28960182 197.19300158 -96.29279202 180.80864459 C-96.29495199 171.61681122 -96.30362508 162.42508748 -96.3292532 153.23328686 C-96.35103925 145.40158631 -96.35897203 137.57002204 -96.34928641 129.73829462 C-96.34476423 125.74829028 -96.34650519 121.75856664 -96.36604786 117.76860142 C-96.50808957 87.06304736 -96.50808957 87.06304736 -91.87576771 73.13422108 C-91.49787255 71.97382155 -91.1199774 70.81342203 -90.73063087 69.61785889 C-81.77909672 43.45844774 -62.76023025 23.40926834 -38.69217396 10.41547108 C-26.90061237 4.64481921 -13.2152458 0.02370648 0 0 Z " fill="#0A71B8" transform="translate(95.8757677078247,-0.13422107696533203)"/>
<path d="M0 0 C21.35006664 -0.09373275 42.700099 -0.16412035 64.05033016 -0.20724869 C73.96518295 -0.22781244 83.87990738 -0.25581375 93.79467773 -0.30175781 C102.44346111 -0.34181608 111.09215145 -0.36747769 119.74102503 -0.37635398 C124.31415592 -0.3815368 128.8870208 -0.39358691 133.46006584 -0.42292023 C137.77831799 -0.45039064 142.09619857 -0.45838231 146.4145298 -0.45243073 C147.98610337 -0.45351702 149.55769144 -0.46128045 151.12918854 -0.4768219 C181.28112942 -0.7599854 207.25623842 11.68614121 228.5546875 32.49609375 C244.08578341 48.86017232 256.09325146 73.03713699 256.13422108 95.87576771 C256.13867892 97.03371745 256.14313676 98.19166719 256.14772969 99.38470632 C256.14745315 101.27878894 256.14745315 101.27878894 256.14717102 103.21113586 C256.15047302 104.5736332 256.1541993 105.93612956 256.1583125 107.29862469 C256.16830278 111.03757217 256.1720445 114.77650359 256.17470181 118.51546252 C256.17861382 122.55049163 256.18819165 126.58550814 256.19691467 130.62052917 C256.21665579 140.36383701 256.22674319 150.10714584 256.23564246 159.85046867 C256.24003 164.44422474 256.24539567 169.03797967 256.25063133 173.63173485 C256.26764273 188.91257265 256.2821348 204.19340975 256.28938007 219.47425556 C256.29128982 223.43767104 256.29321018 227.4010865 256.29516602 231.36450195 C256.29564976 232.34953377 256.2961335 233.33456559 256.2966319 234.34944686 C256.30492434 250.29053758 256.33024838 266.23155307 256.36274669 282.17261098 C256.39587493 298.55693431 256.41383411 314.9412195 256.41702431 331.32557648 C256.41918429 340.51740986 256.42785737 349.70913359 256.45348549 358.90093422 C256.47527154 366.73263477 256.48320432 374.56419904 256.47351871 382.39592645 C256.46899652 386.3859308 256.47073748 390.37565444 256.49028015 394.36561966 C256.63232186 425.07117372 256.63232186 425.07117372 252 439 C251.62218541 440.16031896 251.24437082 441.32063791 250.85510731 442.51611805 C241.90633234 468.6634377 222.85201072 488.73071479 198.8125 501.72265625 C186.06280208 507.95407111 172.13822597 512.13110299 157.8941803 512.12025452 C157.21441318 512.12110894 156.53464607 512.12196337 155.83427995 512.12284368 C153.57577173 512.12447969 151.31733918 512.11900816 149.05883789 512.11352539 C147.4322103 512.11324309 145.80558259 512.1134021 144.17895508 512.1139679 C139.7766062 512.11425418 135.37428471 512.10838469 130.97194219 512.10139394 C126.36617882 512.09513235 121.76041479 512.09455438 117.15464783 512.09336853 C108.43900536 512.09026348 99.72337547 512.08206124 91.00773853 512.07201904 C79.22603142 512.05873947 67.44432086 512.05335132 55.66260815 512.04751682 C37.10839601 512.0381208 18.55421042 512.01819635 0 512 C0 475.04 0 438.08 0 400 C42 399.75 42 399.75 55.1640625 399.70214844 C59.12624474 399.66884767 59.12624474 399.66884767 63.08837891 399.63043213 C64.82596468 399.61600799 66.56362399 399.60905391 68.30126953 399.60845947 C91.54215767 399.58694013 110.74029849 394.3271642 128.109375 378.01953125 C141.26498588 364.43049908 146.33384136 347.23866279 146.1875 328.75 C146.12226403 325.59919306 146.05196465 322.44963825 145.94995117 319.29980469 C146 317 146 317 147 315 C147.55440432 310.45570231 147.50820217 306.97731187 145.375 302.875 C144.59125 301.92625 143.8075 300.9775 143 300 C142.52949219 299.42378906 142.05898438 298.84757812 141.57421875 298.25390625 C137.74776871 293.65623373 133.64168651 289.42755348 129.125 285.5 C127 283 127 283 127.16015625 280.74609375 C128.527872 276.27398133 130.88472413 272.34845697 133.11328125 268.25390625 C135.93398954 262.50879821 137.35838582 256.15941382 139 250 C140.31605225 249.97812622 140.31605225 249.97812622 141.65869141 249.95581055 C144.93549321 249.8945032 148.21148944 249.82030667 151.48779297 249.73754883 C152.9017449 249.70443709 154.31582464 249.67636284 155.72998047 249.65356445 C157.77105823 249.61976225 159.81097928 249.56744036 161.8515625 249.51171875 C163.07697754 249.48553467 164.30239258 249.45935059 165.56494141 249.43237305 C170.64300552 248.79319383 173.90477289 247.1816924 177.375 243.4375 C179.55453405 238.8269472 179.80748663 235.01620485 179 230 C176.77049104 225.45840767 174.50606637 223.19998149 170 221 C166.5222428 220.49863976 166.5222428 220.49863976 162.73046875 220.48828125 C162.04946609 220.47033005 161.36846344 220.45237885 160.66682434 220.43388367 C158.5071112 220.38001369 156.34761601 220.34596218 154.1875 220.3125 C152.71676669 220.27930609 151.24606207 220.24481451 149.77539062 220.20898438 C146.18380313 220.12430284 142.59213924 220.05738039 139 220 C138.5978125 218.43765625 138.5978125 218.43765625 138.1875 216.84375 C135.3099068 206.16038718 131.26935168 196.71495855 126 187 C126.56509277 186.45061768 127.13018555 185.90123535 127.71240234 185.33520508 C130.2744891 182.83557611 132.82478724 180.32423972 135.375 177.8125 C136.26445312 176.94818359 137.15390625 176.08386719 138.0703125 175.19335938 C138.92109375 174.35224609 139.771875 173.51113281 140.6484375 172.64453125 C141.43395996 171.87471924 142.21948242 171.10490723 143.02880859 170.31176758 C146.49057838 166.25188424 147.47405356 162.39995832 147.3125 157.05859375 C146.73701288 153.26757233 145.30368637 151.0917896 143 148 C139.08926038 145.24470618 135.77326622 144.65966583 131.125 144.6015625 C123.47464911 146.03600329 118.80379273 151.84764434 113.625 157.1875 C112.79355469 158.03248047 111.96210938 158.87746094 111.10546875 159.74804688 C109.06333644 161.82538837 107.028561 163.90941808 105 166 C104.49774902 165.74831055 103.99549805 165.49662109 103.47802734 165.23730469 C101.11623917 164.06260175 98.74580058 162.90639967 96.375 161.75 C95.58609375 161.35425781 94.7971875 160.95851562 93.984375 160.55078125 C86.88815641 157.11531035 79.60226944 154.99516574 72 153 C71.98541748 152.08186523 71.97083496 151.16373047 71.95581055 150.21777344 C71.89466485 146.80312091 71.82049783 143.38926328 71.73754883 139.97509766 C71.70434645 138.49896862 71.67629983 137.02271406 71.65356445 135.54638672 C71.61993049 133.42100668 71.56761481 131.29677196 71.51171875 129.171875 C71.48553467 127.8940918 71.45935059 126.61630859 71.43237305 125.29980469 C70.97750227 121.82830081 70.25327664 120.57367436 68 118 C68 117.34 68 116.68 68 116 C62.42317248 113.30153507 56.6040296 112.11561259 50.6875 114.125 C47.20859338 116.55214415 44.8962074 119.2075852 43 123 C42.84504237 125.24974161 42.74989072 127.50371536 42.68359375 129.7578125 C42.66281265 130.42086395 42.64203156 131.08391541 42.62062073 131.76705933 C42.55520769 133.88626694 42.49627895 136.005599 42.4375 138.125 C42.39430691 139.56121081 42.35069236 140.99740902 42.30664062 142.43359375 C42.19953501 145.95559594 42.09824425 149.47773825 42 153 C40.91509277 153.31227539 39.83018555 153.62455078 38.71240234 153.94628906 C30.22437116 156.41525958 22.65164822 159.41206626 14.890625 163.64453125 C12 165 12 165 8 165 C4.4678776 162.9708804 2.15235536 160.44245599 0 157 C-1.1371602 151.88942135 -1.01468172 146.87871147 -0.90820312 141.6796875 C-0.90594385 140.13173032 -0.90721844 138.58376459 -0.91174316 137.03581238 C-0.91403059 132.85177591 -0.86713203 128.66958903 -0.8111515 124.48598099 C-0.76100484 120.10720551 -0.75643104 115.72838356 -0.74694824 111.34936523 C-0.72212278 103.06542968 -0.65652828 94.78234277 -0.57615232 86.49878025 C-0.48660868 77.06479529 -0.44271607 67.63076894 -0.40258884 58.19646454 C-0.31905795 38.79716261 -0.1784225 19.39864963 0 0 Z " fill="#0A4A75" transform="translate(256,0)"/>
<path d="M0 0 C3.85839158 3.19695303 5.99644133 6.32861103 6.64160156 11.33935547 C6.6206543 12.60666504 6.59970703 13.87397461 6.578125 15.1796875 C6.57246521 15.85927521 6.56680542 16.53886292 6.56097412 17.23904419 C6.53875351 19.38927549 6.48859198 21.53778074 6.4375 23.6875 C6.41741614 25.1536216 6.39916868 26.61976958 6.3828125 28.0859375 C6.33893811 31.66201008 6.27001443 35.23708631 6.1875 38.8125 C6.91122803 38.93004639 7.63495605 39.04759277 8.38061523 39.16870117 C13.58274626 40.05574845 18.3951234 40.98047177 23.25 43.125 C24.14847656 43.51300781 25.04695313 43.90101563 25.97265625 44.30078125 C30.41807558 46.39115462 34.80274405 48.59821177 39.1875 50.8125 C40.01157349 49.96486084 40.01157349 49.96486084 40.85229492 49.10009766 C43.35192389 46.5380109 45.86326028 43.98771276 48.375 41.4375 C49.23931641 40.54804688 50.10363281 39.65859375 50.99414062 38.7421875 C52.25581055 37.46601563 52.25581055 37.46601563 53.54296875 36.1640625 C54.31278076 35.37854004 55.08259277 34.59301758 55.87573242 33.78369141 C59.9349627 30.32247847 63.79117321 29.33257065 69.1328125 29.50390625 C73.45016757 30.1523303 76.67684806 32.05230083 79.51171875 35.35546875 C82.45691175 39.87143135 82.7776154 43.50146143 82.1875 48.8125 C79.86493089 55.29475232 74.82909485 59.50406231 70 64.1875 C69.15501953 65.01894531 68.31003906 65.85039062 67.43945312 66.70703125 C65.36211163 68.74916356 63.27808192 70.783939 61.1875 72.8125 C61.44442627 73.34093506 61.70135254 73.86937012 61.96606445 74.41381836 C63.14971354 76.85650989 64.32487799 79.30319557 65.5 81.75 C66.10618164 82.99620117 66.10618164 82.99620117 66.72460938 84.26757812 C73.44066461 98.30031141 73.44066461 98.30031141 73.1875 105.8125 C74.09516113 105.79155273 75.00282227 105.77060547 75.93798828 105.74902344 C79.32627642 105.68059067 82.7138235 105.63057705 86.10253906 105.59277344 C87.56522252 105.57273668 89.02782666 105.54549896 90.49023438 105.51074219 C92.6004601 105.46186775 94.70962136 105.43945341 96.8203125 105.421875 C98.08762207 105.40092773 99.35493164 105.37998047 100.66064453 105.35839844 C106.00030085 106.04590783 109.01706166 108.51885762 112.5625 112.4375 C114.76285013 117.00745797 114.99839533 120.82549372 114.1875 125.8125 C111.57429161 130.94558791 108.64812759 133.9922908 103.1875 135.8125 C100.9036483 135.89628628 98.617399 135.91979915 96.33203125 135.91015625 C95.67039474 135.9087413 95.00875824 135.90732635 94.32707214 135.90586853 C92.21800172 135.90027996 90.10903823 135.88772965 88 135.875 C86.56836091 135.86998352 85.13672015 135.86542087 83.70507812 135.86132812 C80.19918412 135.8503143 76.6933525 135.83305755 73.1875 135.8125 C73.00960937 137.59333984 73.00960937 137.59333984 72.828125 139.41015625 C71.71870029 148.22542777 67.76787646 156.48502654 63.0078125 163.91015625 C62.01978315 165.78111126 62.01978315 165.78111126 62.3828125 167.84375 C63.28714341 170.05628777 64.34428189 171.47200144 65.9375 173.25 C66.48019531 173.8584375 67.02289063 174.466875 67.58203125 175.09375 C68.90135963 176.50616968 70.25833312 177.88333312 71.625 179.25 C82.04434211 189.66934211 82.04434211 189.66934211 82.3203125 193.80078125 C82.31644531 194.95126953 82.31644531 194.95126953 82.3125 196.125 C82.31507813 196.88425781 82.31765625 197.64351562 82.3203125 198.42578125 C82.1875 200.8125 82.1875 200.8125 81.67431641 203.16552734 C81.19919623 205.74890394 81.14347259 207.93486083 81.265625 210.55078125 C81.92537585 230.51408682 77.79312953 247.68253091 64.0625 263.0625 C51.50214835 276.42925978 34.29359438 285.20185591 15.8200779 286.09234428 C10.66793825 286.24532579 5.51642943 286.23011763 0.36254883 286.21655273 C-1.61014185 286.2222657 -3.58282922 286.22923352 -5.55551147 286.23735046 C-10.88020881 286.25519846 -16.20474058 286.25412881 -21.52945876 286.24840808 C-25.99207582 286.24530287 -30.45466169 286.25142371 -34.9172743 286.25744683 C-45.45667639 286.27146419 -55.99599739 286.26995514 -66.53540039 286.25854492 C-77.36617296 286.2470775 -88.1966975 286.26112273 -99.02743739 286.2879414 C-108.36295304 286.31018225 -117.69839132 286.31671663 -127.03393155 286.31086498 C-132.59332649 286.30751288 -138.15256267 286.30979286 -143.71193504 286.32711601 C-148.9463767 286.3427164 -154.18045469 286.3384861 -159.41488266 286.31981087 C-161.32143782 286.31616035 -163.22802073 286.3191283 -165.13455009 286.32969666 C-189.44041988 286.45400254 -209.97553378 281.45942262 -227.765625 263.8828125 C-239.67010682 250.99491697 -246.43067647 234.11661293 -246.3125 216.625 C-246.30677979 215.62686279 -246.30105957 214.62872559 -246.29516602 213.6003418 C-245.85172083 195.02192937 -237.85431989 179.90000052 -224.8125 166.8125 C-224.21050781 166.18730469 -223.60851562 165.56210937 -222.98828125 164.91796875 C-211.07447781 153.46934636 -194.1929016 147.46077424 -177.875 147.5625 C-175.51716783 147.61207618 -173.16857096 147.70104329 -170.8125 147.8125 C-170.56371094 146.95914063 -170.31492187 146.10578125 -170.05859375 145.2265625 C-162.727383 125.14042395 -143.64544478 108.57982038 -124.86914062 99.46362305 C-114.44537651 94.64807702 -103.5790547 90.63303985 -92 90.75 C-90.83855469 90.75902344 -89.67710937 90.76804687 -88.48046875 90.77734375 C-87.60003906 90.78894531 -86.71960938 90.80054688 -85.8125 90.8125 C-85.71195313 90.10222656 -85.61140625 89.39195312 -85.5078125 88.66015625 C-84.47918476 84.44740554 -82.21363822 81.12406833 -79.9921875 77.43359375 C-78.6329909 74.99653954 -78.6329909 74.99653954 -79.00463867 72.89672852 C-80.0444037 70.21420386 -81.48455191 68.83282761 -83.55859375 66.84375 C-84.31333984 66.10769531 -85.06808594 65.37164062 -85.84570312 64.61328125 C-86.63912109 63.85402344 -87.43253906 63.09476562 -88.25 62.3125 C-89.81576048 60.80681359 -91.37714743 59.29656261 -92.93359375 57.78125 C-93.97664673 56.78254883 -93.97664673 56.78254883 -95.04077148 55.76367188 C-99.02249963 51.37866824 -99.35811233 47.34316838 -99.265625 41.578125 C-98.54298594 37.16753488 -96.26635856 34.52964102 -92.8125 31.8125 C-88.97448051 29.53415377 -85.19608506 29.08710247 -80.8125 29.8125 C-74.33136123 32.10553448 -70.11153856 37.1805966 -65.4375 42 C-64.60605469 42.84498047 -63.77460938 43.68996094 -62.91796875 44.56054688 C-60.87583644 46.63788837 -58.841061 48.72191808 -56.8125 50.8125 C-52.76736956 49.23197509 -48.97864593 47.38165774 -45.125 45.375 C-38.24442262 41.86769858 -31.62651981 38.8125 -23.8125 38.8125 C-23.83344727 37.93513184 -23.85439453 37.05776367 -23.87597656 36.15380859 C-23.944426 32.87733317 -23.99443051 29.60162488 -24.03222656 26.32470703 C-24.05225843 24.91052205 -24.07949248 23.49641903 -24.11425781 22.08251953 C-24.16315489 20.04178581 -24.18555123 18.0021531 -24.203125 15.9609375 C-24.22407227 14.73552246 -24.24501953 13.51010742 -24.26660156 12.24755859 C-23.57449187 7.01208368 -21.10020172 3.97457229 -17.25 0.5 C-11.80634552 -3.26868387 -5.90116737 -2.491604 0 0 Z " fill="#66C6EF" transform="translate(321.8125,114.1875)"/>
<path d="M0 0 C0.70082703 -0.00095673 1.40165405 -0.00191345 2.12371826 -0.00289917 C3.59615164 -0.00357665 5.06858807 -0.00175262 6.54101562 0.00244141 C8.80345258 0.00782816 11.06569391 0.00246541 13.328125 -0.00390625 C14.76041711 -0.00324602 16.19270909 -0.00196601 17.625 0 C19.58034668 0.00169189 19.58034668 0.00169189 21.57519531 0.00341797 C24.546875 0.1328125 24.546875 0.1328125 25.546875 1.1328125 C25.64459812 3.6243397 25.67683318 6.08811758 25.66712952 8.58009338 C25.66841115 9.76356343 25.66841115 9.76356343 25.66971868 10.97094196 C25.67137589 13.63502877 25.66584821 16.29905368 25.66040039 18.96313477 C25.66011854 20.86473591 25.6602762 22.76633716 25.6608429 24.66793823 C25.66113097 29.84747534 25.65523263 35.02698951 25.64826894 40.20652127 C25.64203706 45.61309777 25.64143173 51.01967474 25.64024353 56.42625427 C25.63712972 66.67206541 25.62891567 76.91786593 25.61889404 87.16367239 C25.60773443 98.82489913 25.60222284 110.48612636 25.59719861 122.14735711 C25.5867331 146.1425148 25.5691327 170.13766306 25.546875 194.1328125 C10.07354142 194.17963623 -5.39978683 194.21485202 -20.87317467 194.23643684 C-28.05854035 194.24672765 -35.24386188 194.26074575 -42.42919922 194.28369141 C-48.69556161 194.30369278 -54.961892 194.31654488 -61.22828543 194.32098949 C-64.54300699 194.3235855 -67.85761629 194.33070753 -71.17231369 194.34427261 C-74.88234572 194.35884798 -78.59218991 194.36078789 -82.30224609 194.35986328 C-83.38838196 194.36705383 -84.47451782 194.37424438 -85.59356689 194.38165283 C-105.26428305 194.32881047 -122.36543737 187.02863207 -136.421875 173.1953125 C-148.30033214 160.27488544 -155.07140866 143.45279099 -154.953125 125.9453125 C-154.94740479 124.94717529 -154.94168457 123.94903809 -154.93579102 122.9206543 C-154.49234583 104.34224187 -146.49494489 89.22031302 -133.453125 76.1328125 C-132.55013672 75.19501953 -132.55013672 75.19501953 -131.62890625 74.23828125 C-119.71510281 62.78965886 -102.8335266 56.78108674 -86.515625 56.8828125 C-84.15779283 56.93238868 -81.80919596 57.02135579 -79.453125 57.1328125 C-79.20433594 56.27945313 -78.95554687 55.42609375 -78.69921875 54.546875 C-71.368008 34.46073645 -52.28606978 17.90013288 -33.50976562 8.78393555 C-22.81275345 3.84215502 -11.86715874 0.01023283 0 0 Z " fill="#8BEBFE" transform="translate(230.453125,204.8671875)"/>
<path d="M0 0 C3.85839158 3.19695303 5.99644133 6.32861103 6.64160156 11.33935547 C6.6206543 12.60666504 6.59970703 13.87397461 6.578125 15.1796875 C6.57246521 15.85927521 6.56680542 16.53886292 6.56097412 17.23904419 C6.53875351 19.38927549 6.48859198 21.53778074 6.4375 23.6875 C6.41741614 25.1536216 6.39916868 26.61976958 6.3828125 28.0859375 C6.33893811 31.66201008 6.27001443 35.23708631 6.1875 38.8125 C6.91122803 38.93004639 7.63495605 39.04759277 8.38061523 39.16870117 C13.58274626 40.05574845 18.3951234 40.98047177 23.25 43.125 C24.14847656 43.51300781 25.04695313 43.90101563 25.97265625 44.30078125 C30.41807558 46.39115462 34.80274405 48.59821177 39.1875 50.8125 C40.01157349 49.96486084 40.01157349 49.96486084 40.85229492 49.10009766 C43.35192389 46.5380109 45.86326028 43.98771276 48.375 41.4375 C49.23931641 40.54804688 50.10363281 39.65859375 50.99414062 38.7421875 C51.83525391 37.89140625 52.67636719 37.040625 53.54296875 36.1640625 C54.69768677 34.98577881 54.69768677 34.98577881 55.87573242 33.78369141 C59.9349627 30.32247847 63.79117321 29.33257065 69.1328125 29.50390625 C73.45016757 30.1523303 76.67684806 32.05230083 79.51171875 35.35546875 C82.45691175 39.87143135 82.7776154 43.50146143 82.1875 48.8125 C79.86493089 55.29475232 74.82909485 59.50406231 70 64.1875 C69.15501953 65.01894531 68.31003906 65.85039062 67.43945312 66.70703125 C65.36211163 68.74916356 63.27808192 70.783939 61.1875 72.8125 C61.44442627 73.34093506 61.70135254 73.86937012 61.96606445 74.41381836 C63.14971354 76.85650989 64.32487799 79.30319557 65.5 81.75 C66.10618164 82.99620117 66.10618164 82.99620117 66.72460938 84.26757812 C73.44066461 98.30031141 73.44066461 98.30031141 73.1875 105.8125 C74.09516113 105.79155273 75.00282227 105.77060547 75.93798828 105.74902344 C79.32627642 105.68059067 82.7138235 105.63057705 86.10253906 105.59277344 C87.56522252 105.57273668 89.02782666 105.54549896 90.49023438 105.51074219 C92.6004601 105.46186775 94.70962136 105.43945341 96.8203125 105.421875 C98.08762207 105.40092773 99.35493164 105.37998047 100.66064453 105.35839844 C106.00030085 106.04590783 109.01706166 108.51885762 112.5625 112.4375 C114.76285013 117.00745797 114.99839533 120.82549372 114.1875 125.8125 C111.57429161 130.94558791 108.64812759 133.9922908 103.1875 135.8125 C100.9036483 135.89628628 98.617399 135.91979915 96.33203125 135.91015625 C95.33957649 135.90803383 95.33957649 135.90803383 94.32707214 135.90586853 C92.21800172 135.90027996 90.10903823 135.88772965 88 135.875 C86.56836091 135.86998352 85.13672015 135.86542087 83.70507812 135.86132812 C80.19918412 135.8503143 76.6933525 135.83305755 73.1875 135.8125 C73.06761719 137.00101563 72.94773437 138.18953125 72.82421875 139.4140625 C71.55907088 149.45134382 66.67357729 158.46084282 61.1875 166.8125 C58.03181445 165.34993341 55.3625219 163.55669361 52.5625 161.5 C41.56330734 153.78295362 29.39997883 148.54776428 15.78613281 148.84765625 C12.32465687 148.89275691 9.57402187 148.68779741 6.1875 147.8125 C3.19933616 144.44949582 1.75346558 140.78254122 0.05517578 136.65283203 C-9.3860373 116.6281094 -31.40338083 102.81414401 -51.5078125 95.4609375 C-59.93635923 92.79221769 -67.89162181 91.65402754 -76.6875 91.25 C-77.56664062 91.20681641 -78.44578125 91.16363281 -79.3515625 91.11914062 C-81.50505797 91.01380661 -83.65876064 90.91272351 -85.8125 90.8125 C-85.07456516 85.59965264 -82.67144807 81.88462341 -79.9921875 77.43359375 C-78.6329909 74.99653954 -78.6329909 74.99653954 -79.00463867 72.89672852 C-80.0444037 70.21420386 -81.48455191 68.83282761 -83.55859375 66.84375 C-84.69071289 65.73966797 -84.69071289 65.73966797 -85.84570312 64.61328125 C-86.63912109 63.85402344 -87.43253906 63.09476562 -88.25 62.3125 C-89.81576048 60.80681359 -91.37714743 59.29656261 -92.93359375 57.78125 C-93.6289624 57.11544922 -94.32433105 56.44964844 -95.04077148 55.76367188 C-99.02249963 51.37866824 -99.35811233 47.34316838 -99.265625 41.578125 C-98.54298594 37.16753488 -96.26635856 34.52964102 -92.8125 31.8125 C-88.97448051 29.53415377 -85.19608506 29.08710247 -80.8125 29.8125 C-74.33136123 32.10553448 -70.11153856 37.1805966 -65.4375 42 C-64.60605469 42.84498047 -63.77460938 43.68996094 -62.91796875 44.56054688 C-60.87583644 46.63788837 -58.841061 48.72191808 -56.8125 50.8125 C-52.76736956 49.23197509 -48.97864593 47.38165774 -45.125 45.375 C-38.24442262 41.86769858 -31.62651981 38.8125 -23.8125 38.8125 C-23.8439209 37.49644775 -23.8439209 37.49644775 -23.87597656 36.15380859 C-23.944426 32.87733317 -23.99443051 29.60162488 -24.03222656 26.32470703 C-24.05225843 24.91052205 -24.07949248 23.49641903 -24.11425781 22.08251953 C-24.16315489 20.04178581 -24.18555123 18.0021531 -24.203125 15.9609375 C-24.2345459 14.12281494 -24.2345459 14.12281494 -24.26660156 12.24755859 C-23.57449187 7.01208368 -21.10020172 3.97457229 -17.25 0.5 C-11.80634552 -3.26868387 -5.90116737 -2.491604 0 0 Z " fill="#FE9D09" transform="translate(321.8125,114.1875)"/>
<path d="M0 0 C5.24904954 3.53507418 11.02515736 7.47951555 12.85501099 13.79983521 C13.09936984 16.86393447 13.07761022 19.80822648 12.94140625 22.87890625 C12.92867172 23.97597397 12.91593719 25.07304169 12.90281677 26.20335388 C12.85275803 29.6795625 12.73991285 33.15039196 12.625 36.625 C12.57981802 38.99276271 12.53875998 41.36060792 12.50195312 43.72851562 C12.40315451 49.50855733 12.24806465 55.28461945 12.0625 61.0625 C5.4625 60.7325 -1.1375 60.4025 -7.9375 60.0625 C-6.86000209 54.67501045 -4.90834278 51.320513 -2.1171875 46.68359375 C-0.7579909 44.24653954 -0.7579909 44.24653954 -1.12963867 42.14672852 C-2.1694037 39.46420386 -3.60955191 38.08282761 -5.68359375 36.09375 C-6.81571289 34.98966797 -6.81571289 34.98966797 -7.97070312 33.86328125 C-8.76412109 33.10402344 -9.55753906 32.34476563 -10.375 31.5625 C-11.94076048 30.05681359 -13.50214743 28.54656261 -15.05859375 27.03125 C-15.7539624 26.36544922 -16.44933105 25.69964844 -17.16577148 25.01367188 C-21.14749963 20.62866824 -21.48311233 16.59316838 -21.390625 10.828125 C-20.66798594 6.41753488 -18.39135856 3.77964102 -14.9375 1.0625 C-10.08272701 -1.81941703 -5.24601682 -1.67426069 0 0 Z " fill="#FCDC34" transform="translate(243.9375,144.9375)"/>
<path d="M0 0 C5.41424365 1.80474788 8.47122936 7.0767079 11.9375 11.4375 C13.49515716 15.19420257 13.60731447 18.98541476 13 23 C12.34 23.66 11.68 24.32 11 25 C10.62488281 23.94941406 10.24976563 22.89882813 9.86328125 21.81640625 C7.10187615 14.20123787 4.32900765 6.89576439 0 0 Z " fill="#F29D14" transform="translate(391,292)"/>
</svg>
